<svg xmlns="http://www.w3.org/2000/svg" xmlns:xlink="http://www.w3.org/1999/xlink" width="1080" zoomAndPan="magnify" viewBox="0 0 810 809.999993" height="1080" preserveAspectRatio="xMidYMid meet" version="1.2"><g id="d6c703db94"><path style=" stroke:none;fill-rule:nonzero;fill:#ffd21e;fill-opacity:1;" d="M 402.53125 630.707031 C 407.375 630.707031 412.214844 630.589844 417.054688 630.351562 C 421.894531 630.113281 426.722656 629.757812 431.542969 629.285156 C 436.363281 628.808594 441.171875 628.214844 445.964844 627.507812 C 450.753906 626.796875 455.527344 625.96875 460.277344 625.023438 C 465.03125 624.078125 469.753906 623.019531 474.453125 621.839844 C 479.152344 620.664062 483.820312 619.375 488.457031 617.96875 C 493.09375 616.5625 497.691406 615.042969 502.253906 613.414062 C 506.8125 611.78125 511.332031 610.039062 515.808594 608.1875 C 520.285156 606.335938 524.710938 604.371094 529.089844 602.300781 C 533.46875 600.230469 537.796875 598.054688 542.070312 595.773438 C 546.339844 593.492188 550.554688 591.105469 554.710938 588.613281 C 558.867188 586.125 562.957031 583.535156 566.984375 580.847656 C 571.011719 578.15625 574.972656 575.367188 578.863281 572.484375 C 582.753906 569.597656 586.574219 566.621094 590.316406 563.550781 C 594.0625 560.476562 597.730469 557.316406 601.320312 554.0625 C 604.910156 550.8125 608.417969 547.476562 611.839844 544.050781 C 615.265625 540.625 618.605469 537.121094 621.859375 533.535156 C 625.113281 529.945312 628.277344 526.28125 631.351562 522.539062 C 634.421875 518.792969 637.402344 514.976562 640.289062 511.089844 C 643.175781 507.199219 645.964844 503.242188 648.65625 499.214844 C 651.347656 495.191406 653.9375 491.101562 656.425781 486.945312 C 658.917969 482.792969 661.304688 478.582031 663.589844 474.3125 C 665.871094 470.042969 668.050781 465.71875 670.121094 461.339844 C 672.191406 456.964844 674.15625 452.539062 676.007812 448.0625 C 677.863281 443.589844 679.605469 439.074219 681.238281 434.515625 C 682.871094 429.957031 684.390625 425.359375 685.796875 420.726562 C 687.203125 416.09375 688.492188 411.425781 689.671875 406.730469 C 690.847656 402.035156 691.910156 397.308594 692.855469 392.5625 C 693.800781 387.8125 694.625 383.042969 695.335938 378.253906 C 696.046875 373.464844 696.640625 368.660156 697.117188 363.839844 C 697.589844 359.023438 697.949219 354.195312 698.183594 349.359375 C 698.421875 344.519531 698.542969 339.683594 698.542969 334.839844 C 698.542969 329.996094 698.421875 325.160156 698.183594 320.324219 C 697.949219 315.484375 697.589844 310.660156 697.117188 305.839844 C 696.640625 301.019531 696.046875 296.21875 695.335938 291.425781 C 694.625 286.636719 693.800781 281.867188 692.855469 277.117188 C 691.910156 272.371094 690.847656 267.648438 689.671875 262.949219 C 688.492188 258.253906 687.203125 253.585938 685.796875 248.953125 C 684.390625 244.320312 682.871094 239.722656 681.238281 235.164062 C 679.605469 230.605469 677.863281 226.089844 676.007812 221.617188 C 674.15625 217.140625 672.191406 212.71875 670.121094 208.339844 C 668.050781 203.960938 665.871094 199.640625 663.589844 195.367188 C 661.304688 191.097656 658.917969 186.886719 656.425781 182.734375 C 653.9375 178.578125 651.347656 174.492188 648.65625 170.464844 C 645.964844 166.4375 643.175781 162.480469 640.289062 158.589844 C 637.402344 154.703125 634.421875 150.886719 631.351562 147.144531 C 628.277344 143.398438 625.113281 139.734375 621.859375 136.148438 C 618.605469 132.558594 615.265625 129.054688 611.839844 125.628906 C 608.417969 122.207031 604.910156 118.867188 601.320312 115.617188 C 597.730469 112.363281 594.0625 109.203125 590.316406 106.128906 C 586.574219 103.058594 582.753906 100.082031 578.863281 97.195312 C 574.972656 94.3125 571.011719 91.523438 566.984375 88.835938 C 562.957031 86.144531 558.867188 83.554688 554.710938 81.066406 C 550.554688 78.574219 546.339844 76.191406 542.070312 73.90625 C 537.796875 71.625 533.46875 69.449219 529.089844 67.378906 C 524.710938 65.308594 520.285156 63.347656 515.808594 61.492188 C 511.332031 59.640625 506.8125 57.898438 502.253906 56.265625 C 497.691406 54.636719 493.09375 53.117188 488.457031 51.710938 C 483.820312 50.304688 479.152344 49.015625 474.453125 47.839844 C 469.753906 46.660156 465.03125 45.601562 460.277344 44.65625 C 455.527344 43.710938 450.753906 42.882812 445.964844 42.171875 C 441.171875 41.464844 436.363281 40.871094 431.542969 40.394531 C 426.722656 39.921875 421.894531 39.566406 417.054688 39.328125 C 412.214844 39.089844 407.375 38.972656 402.53125 38.972656 C 397.683594 38.972656 392.84375 39.089844 388.003906 39.328125 C 383.167969 39.566406 378.335938 39.921875 373.515625 40.394531 C 368.695312 40.871094 363.886719 41.464844 359.09375 42.171875 C 354.304688 42.882812 349.53125 43.710938 344.78125 44.65625 C 340.027344 45.601562 335.304688 46.660156 330.605469 47.839844 C 325.90625 49.015625 321.238281 50.304688 316.601562 51.710938 C 311.964844 53.117188 307.367188 54.636719 302.804688 56.265625 C 298.246094 57.898438 293.726562 59.640625 289.25 61.492188 C 284.773438 63.347656 280.347656 65.308594 275.96875 67.378906 C 271.589844 69.449219 267.261719 71.625 262.992188 73.90625 C 258.71875 76.191406 254.503906 78.574219 250.347656 81.066406 C 246.195312 83.554688 242.101562 86.144531 238.074219 88.835938 C 234.046875 91.523438 230.085938 94.3125 226.195312 97.195312 C 222.304688 100.082031 218.488281 103.058594 214.742188 106.128906 C 210.996094 109.203125 207.328125 112.363281 203.738281 115.617188 C 200.152344 118.867188 196.644531 122.207031 193.21875 125.628906 C 189.792969 129.054688 186.453125 132.558594 183.199219 136.148438 C 179.945312 139.734375 176.78125 143.398438 173.710938 147.144531 C 170.636719 150.886719 167.65625 154.703125 164.769531 158.589844 C 161.882812 162.480469 159.097656 166.4375 156.40625 170.464844 C 153.714844 174.492188 151.121094 178.578125 148.632812 182.734375 C 146.140625 186.886719 143.753906 191.097656 141.46875 195.367188 C 139.1875 199.640625 137.007812 203.960938 134.9375 208.339844 C 132.867188 212.71875 130.902344 217.140625 129.050781 221.617188 C 127.195312 226.089844 125.453125 230.605469 123.820312 235.164062 C 122.1875 239.722656 120.671875 244.320312 119.265625 248.953125 C 117.859375 253.585938 116.566406 258.253906 115.390625 262.949219 C 114.210938 267.648438 113.152344 272.371094 112.207031 277.117188 C 111.261719 281.867188 110.433594 286.636719 109.722656 291.425781 C 109.011719 296.21875 108.417969 301.019531 107.941406 305.839844 C 107.46875 310.660156 107.113281 315.484375 106.875 320.324219 C 106.636719 325.160156 106.519531 329.996094 106.519531 334.839844 C 106.519531 339.683594 106.636719 344.519531 106.875 349.359375 C 107.113281 354.195312 107.46875 359.023438 107.941406 363.839844 C 108.417969 368.660156 109.011719 373.464844 109.722656 378.253906 C 110.433594 383.042969 111.261719 387.8125 112.207031 392.5625 C 113.152344 397.308594 114.210938 402.035156 115.390625 406.730469 C 116.566406 411.425781 117.859375 416.09375 119.265625 420.726562 C 120.671875 425.359375 122.1875 429.957031 123.820312 434.515625 C 125.453125 439.074219 127.195312 443.589844 129.050781 448.0625 C 130.902344 452.539062 132.867188 456.964844 134.9375 461.339844 C 137.007812 465.71875 139.1875 470.042969 141.46875 474.3125 C 143.753906 478.582031 146.140625 482.792969 148.632812 486.945312 C 151.121094 491.101562 153.714844 495.191406 156.40625 499.214844 C 159.097656 503.242188 161.882812 507.199219 164.769531 511.089844 C 167.65625 514.976562 170.636719 518.792969 173.710938 522.539062 C 176.78125 526.28125 179.945312 529.945312 183.199219 533.535156 C 186.453125 537.121094 189.792969 540.625 193.21875 544.050781 C 196.644531 547.476562 200.152344 550.8125 203.738281 554.0625 C 207.328125 557.316406 210.996094 560.476562 214.742188 563.550781 C 218.488281 566.621094 222.304688 569.597656 226.195312 572.484375 C 230.085938 575.367188 234.046875 578.15625 238.074219 580.847656 C 242.101562 583.535156 246.195312 586.125 250.347656 588.613281 C 254.503906 591.105469 258.71875 593.492188 262.992188 595.773438 C 267.261719 598.054688 271.589844 600.230469 275.96875 602.300781 C 280.347656 604.371094 284.773438 606.335938 289.25 608.1875 C 293.726562 610.039062 298.246094 611.78125 302.804688 613.414062 C 307.367188 615.042969 311.964844 616.5625 316.601562 617.96875 C 321.238281 619.375 325.90625 620.664062 330.605469 621.839844 C 335.304688 623.019531 340.027344 624.078125 344.78125 625.023438 C 349.53125 625.96875 354.304688 626.796875 359.09375 627.507812 C 363.886719 628.214844 368.695312 628.808594 373.515625 629.285156 C 378.335938 629.757812 383.167969 630.113281 388.003906 630.351562 C 392.84375 630.589844 397.683594 630.707031 402.53125 630.707031 Z M 402.53125 630.707031 "/><path style=" stroke:none;fill-rule:nonzero;fill:#ff9d0b;fill-opacity:1;" d="M 698.542969 334.839844 C 698.542969 329.996094 698.421875 325.160156 698.183594 320.324219 C 697.949219 315.484375 697.589844 310.660156 697.117188 305.839844 C 696.640625 301.019531 696.046875 296.21875 695.335938 291.425781 C 694.625 286.636719 693.800781 281.867188 692.855469 277.117188 C 691.910156 272.371094 690.847656 267.648438 689.671875 262.949219 C 688.492188 258.253906 687.203125 253.585938 685.796875 248.953125 C 684.390625 244.320312 682.871094 239.722656 681.238281 235.164062 C 679.605469 230.605469 677.863281 226.089844 676.007812 221.617188 C 674.15625 217.140625 672.191406 212.71875 670.121094 208.339844 C 668.050781 203.960938 665.871094 199.640625 663.589844 195.367188 C 661.304688 191.097656 658.917969 186.886719 656.425781 182.734375 C 653.9375 178.578125 651.347656 174.492188 648.65625 170.464844 C 645.964844 166.4375 643.175781 162.480469 640.289062 158.589844 C 637.402344 154.703125 634.421875 150.886719 631.351562 147.144531 C 628.277344 143.398438 625.113281 139.734375 621.859375 136.148438 C 618.605469 132.558594 615.265625 129.054688 611.839844 125.628906 C 608.417969 122.207031 604.910156 118.867188 601.320312 115.617188 C 597.730469 112.363281 594.0625 109.203125 590.316406 106.128906 C 586.574219 103.058594 582.753906 100.082031 578.863281 97.195312 C 574.972656 94.3125 571.011719 91.523438 566.984375 88.835938 C 562.957031 86.144531 558.867188 83.554688 554.710938 81.066406 C 550.554688 78.574219 546.339844 76.191406 542.070312 73.90625 C 537.796875 71.625 533.46875 69.449219 529.089844 67.378906 C 524.710938 65.308594 520.285156 63.347656 515.808594 61.492188 C 511.332031 59.640625 506.8125 57.898438 502.253906 56.265625 C 497.691406 54.636719 493.09375 53.117188 488.457031 51.710938 C 483.820312 50.304688 479.152344 49.015625 474.453125 47.839844 C 469.753906 46.660156 465.03125 45.601562 460.277344 44.65625 C 455.527344 43.710938 450.753906 42.882812 445.964844 42.171875 C 441.171875 41.464844 436.363281 40.871094 431.542969 40.394531 C 426.722656 39.921875 421.894531 39.566406 417.054688 39.328125 C 412.214844 39.089844 407.375 38.972656 402.53125 38.972656 C 397.683594 38.972656 392.84375 39.089844 388.003906 39.328125 C 383.167969 39.566406 378.335938 39.921875 373.515625 40.394531 C 368.695312 40.871094 363.886719 41.464844 359.09375 42.171875 C 354.304688 42.882812 349.53125 43.710938 344.78125 44.65625 C 340.027344 45.601562 335.304688 46.660156 330.605469 47.839844 C 325.90625 49.015625 321.238281 50.304688 316.601562 51.710938 C 311.964844 53.117188 307.367188 54.636719 302.804688 56.265625 C 298.246094 57.898438 293.726562 59.640625 289.25 61.492188 C 284.773438 63.347656 280.347656 65.308594 275.96875 67.378906 C 271.589844 69.449219 267.261719 71.625 262.992188 73.90625 C 258.71875 76.191406 254.503906 78.574219 250.347656 81.066406 C 246.195312 83.554688 242.101562 86.144531 238.074219 88.835938 C 234.046875 91.523438 230.085938 94.3125 226.195312 97.195312 C 222.304688 100.082031 218.488281 103.058594 214.742188 106.128906 C 210.996094 109.203125 207.328125 112.363281 203.738281 115.617188 C 200.152344 118.867188 196.644531 122.207031 193.21875 125.628906 C 189.792969 129.054688 186.453125 132.558594 183.199219 136.148438 C 179.945312 139.734375 176.78125 143.398438 173.710938 147.144531 C 170.636719 150.886719 167.65625 154.703125 164.769531 158.589844 C 161.882812 162.480469 159.097656 166.4375 156.40625 170.464844 C 153.714844 174.492188 151.121094 178.578125 148.632812 182.734375 C 146.140625 186.886719 143.753906 191.097656 141.46875 195.367188 C 139.1875 199.640625 137.007812 203.960938 134.9375 208.339844 C 132.867188 212.71875 130.902344 217.140625 129.050781 221.617188 C 127.195312 226.089844 125.453125 230.605469 123.820312 235.164062 C 122.1875 239.722656 120.671875 244.320312 119.265625 248.953125 C 117.859375 253.585938 116.566406 258.253906 115.390625 262.949219 C 114.210938 267.648438 113.152344 272.371094 112.207031 277.117188 C 111.261719 281.867188 110.433594 286.636719 109.722656 291.425781 C 109.011719 296.21875 108.417969 301.019531 107.941406 305.839844 C 107.46875 310.660156 107.113281 315.484375 106.875 320.324219 C 106.636719 325.160156 106.519531 329.996094 106.519531 334.839844 C 106.519531 339.683594 106.636719 344.519531 106.875 349.359375 C 107.113281 354.195312 107.46875 359.023438 107.941406 363.839844 C 108.417969 368.660156 109.011719 373.464844 109.722656 378.253906 C 110.433594 383.042969 111.261719 387.8125 112.207031 392.5625 C 113.152344 397.308594 114.210938 402.035156 115.390625 406.730469 C 116.566406 411.425781 117.859375 416.09375 119.265625 420.726562 C 120.671875 425.359375 122.1875 429.957031 123.820312 434.515625 C 125.453125 439.074219 127.195312 443.589844 129.050781 448.0625 C 130.902344 452.539062 132.867188 456.964844 134.9375 461.339844 C 137.007812 465.71875 139.1875 470.042969 141.46875 474.3125 C 143.753906 478.582031 146.140625 482.792969 148.632812 486.945312 C 151.121094 491.101562 153.714844 495.191406 156.40625 499.214844 C 159.097656 503.242188 161.882812 507.199219 164.769531 511.089844 C 167.65625 514.976562 170.636719 518.792969 173.710938 522.539062 C 176.78125 526.28125 179.945312 529.945312 183.199219 533.535156 C 186.453125 537.121094 189.792969 540.625 193.21875 544.050781 C 196.644531 547.476562 200.152344 550.8125 203.738281 554.0625 C 207.328125 557.316406 210.996094 560.476562 214.742188 563.550781 C 218.488281 566.621094 222.304688 569.597656 226.195312 572.484375 C 230.085938 575.367188 234.046875 578.15625 238.074219 580.847656 C 242.101562 583.535156 246.195312 586.125 250.347656 588.613281 C 254.503906 591.105469 258.71875 593.492188 262.992188 595.773438 C 267.261719 598.054688 271.589844 600.230469 275.96875 602.300781 C 280.347656 604.371094 284.773438 606.335938 289.25 608.1875 C 293.726562 610.039062 298.246094 611.78125 302.804688 613.414062 C 307.367188 615.042969 311.964844 616.5625 316.601562 617.96875 C 321.238281 619.375 325.90625 620.664062 330.605469 621.839844 C 335.304688 623.019531 340.027344 624.078125 344.78125 625.023438 C 349.53125 625.96875 354.304688 626.796875 359.09375 627.507812 C 363.886719 628.214844 368.695312 628.808594 373.515625 629.285156 C 378.335938 629.757812 383.167969 630.113281 388.003906 630.351562 C 392.84375 630.589844 397.683594 630.707031 402.53125 630.707031 C 407.375 630.707031 412.214844 630.589844 417.054688 630.351562 C 421.894531 630.113281 426.722656 629.757812 431.542969 629.285156 C 436.363281 628.808594 441.171875 628.214844 445.964844 627.507812 C 450.753906 626.796875 455.527344 625.96875 460.277344 625.023438 C 465.03125 624.078125 469.753906 623.019531 474.453125 621.839844 C 479.152344 620.664062 483.820312 619.375 488.457031 617.96875 C 493.09375 616.5625 497.691406 615.042969 502.253906 613.414062 C 506.8125 611.78125 511.332031 610.039062 515.808594 608.1875 C 520.285156 606.335938 524.710938 604.371094 529.089844 602.300781 C 533.46875 600.230469 537.796875 598.054688 542.070312 595.773438 C 546.339844 593.492188 550.554688 591.105469 554.710938 588.613281 C 558.867188 586.125 562.957031 583.535156 566.984375 580.847656 C 571.011719 578.15625 574.972656 575.367188 578.863281 572.484375 C 582.753906 569.597656 586.574219 566.621094 590.316406 563.550781 C 594.0625 560.476562 597.730469 557.316406 601.320312 554.0625 C 604.910156 550.8125 608.417969 547.476562 611.839844 544.050781 C 615.265625 540.625 618.605469 537.121094 621.859375 533.535156 C 625.113281 529.945312 628.277344 526.28125 631.351562 522.539062 C 634.421875 518.792969 637.402344 514.976562 640.289062 511.089844 C 643.175781 507.199219 645.964844 503.242188 648.65625 499.214844 C 651.347656 495.191406 653.9375 491.101562 656.425781 486.945312 C 658.917969 482.792969 661.304688 478.582031 663.589844 474.3125 C 665.871094 470.042969 668.050781 465.71875 670.121094 461.339844 C 672.191406 456.964844 674.15625 452.539062 676.007812 448.0625 C 677.863281 443.589844 679.605469 439.074219 681.238281 434.515625 C 682.871094 429.957031 684.390625 425.359375 685.796875 420.726562 C 687.203125 416.09375 688.492188 411.425781 689.671875 406.730469 C 690.847656 402.035156 691.910156 397.308594 692.855469 392.5625 C 693.800781 387.8125 694.625 383.042969 695.335938 378.253906 C 696.046875 373.464844 696.640625 368.660156 697.117188 363.839844 C 697.589844 359.023438 697.949219 354.195312 698.183594 349.359375 C 698.421875 344.519531 698.542969 339.683594 698.542969 334.839844 Z M 72.445312 334.839844 C 72.445312 329.441406 72.578125 324.042969 72.84375 318.652344 C 73.105469 313.257812 73.503906 307.875 74.035156 302.5 C 74.5625 297.128906 75.222656 291.769531 76.015625 286.429688 C 76.808594 281.089844 77.734375 275.769531 78.785156 270.476562 C 79.839844 265.179688 81.023438 259.914062 82.335938 254.675781 C 83.648438 249.4375 85.089844 244.234375 86.65625 239.066406 C 88.226562 233.902344 89.917969 228.773438 91.738281 223.691406 C 93.558594 218.609375 95.503906 213.570312 97.570312 208.582031 C 99.636719 203.59375 101.828125 198.660156 104.136719 193.777344 C 106.445312 188.898438 108.875 184.078125 111.421875 179.3125 C 113.96875 174.550781 116.628906 169.855469 119.40625 165.222656 C 122.183594 160.59375 125.074219 156.03125 128.074219 151.542969 C 131.074219 147.054688 134.183594 142.640625 137.402344 138.304688 C 140.621094 133.96875 143.941406 129.710938 147.371094 125.539062 C 150.796875 121.363281 154.324219 117.277344 157.953125 113.277344 C 161.582031 109.273438 165.304688 105.367188 169.125 101.546875 C 172.945312 97.730469 176.855469 94.007812 180.859375 90.382812 C 184.859375 86.753906 188.949219 83.230469 193.125 79.804688 C 197.300781 76.378906 201.558594 73.058594 205.898438 69.839844 C 210.238281 66.625 214.652344 63.515625 219.144531 60.515625 C 223.636719 57.515625 228.199219 54.628906 232.832031 51.855469 C 237.464844 49.078125 242.164062 46.417969 246.929688 43.871094 C 251.691406 41.328125 256.515625 38.898438 261.398438 36.589844 C 266.285156 34.28125 271.21875 32.09375 276.210938 30.027344 C 281.203125 27.960938 286.242188 26.019531 291.328125 24.199219 C 296.414062 22.382812 301.542969 20.6875 306.710938 19.121094 C 311.878906 17.554688 317.085938 16.113281 322.324219 14.800781 C 327.566406 13.488281 332.835938 12.308594 338.132812 11.253906 C 343.429688 10.199219 348.753906 9.277344 354.097656 8.484375 C 359.441406 7.691406 364.800781 7.03125 370.175781 6.503906 C 375.550781 5.972656 380.9375 5.578125 386.332031 5.3125 C 391.730469 5.046875 397.128906 4.914062 402.53125 4.914062 C 407.933594 4.914062 413.332031 5.046875 418.726562 5.3125 C 424.121094 5.578125 429.507812 5.972656 434.882812 6.503906 C 440.257812 7.03125 445.621094 7.691406 450.964844 8.484375 C 456.308594 9.277344 461.628906 10.199219 466.925781 11.253906 C 472.222656 12.308594 477.492188 13.488281 482.734375 14.800781 C 487.972656 16.113281 493.179688 17.554688 498.347656 19.121094 C 503.519531 20.6875 508.644531 22.382812 513.730469 24.199219 C 518.816406 26.019531 523.855469 27.960938 528.847656 30.027344 C 533.839844 32.09375 538.777344 34.28125 543.660156 36.589844 C 548.542969 38.898438 553.367188 41.328125 558.128906 43.871094 C 562.894531 46.417969 567.59375 49.078125 572.226562 51.855469 C 576.859375 54.628906 581.421875 57.515625 585.914062 60.515625 C 590.40625 63.515625 594.820312 66.625 599.160156 69.839844 C 603.5 73.058594 607.757812 76.378906 611.933594 79.804688 C 616.109375 83.230469 620.199219 86.753906 624.203125 90.382812 C 628.203125 94.007812 632.117188 97.730469 635.933594 101.546875 C 639.753906 105.367188 643.480469 109.273438 647.105469 113.277344 C 650.734375 117.277344 654.261719 121.363281 657.6875 125.539062 C 661.117188 129.710938 664.4375 133.96875 667.65625 138.304688 C 670.875 142.640625 673.984375 147.054688 676.984375 151.542969 C 679.988281 156.03125 682.875 160.59375 685.652344 165.222656 C 688.429688 169.855469 691.09375 174.550781 693.640625 179.3125 C 696.183594 184.078125 698.613281 188.898438 700.921875 193.777344 C 703.234375 198.660156 705.421875 203.59375 707.488281 208.582031 C 709.554688 213.570312 711.5 218.609375 713.320312 223.691406 C 715.140625 228.773438 716.832031 233.902344 718.402344 239.066406 C 719.96875 244.234375 721.410156 249.4375 722.722656 254.675781 C 724.035156 259.914062 725.21875 265.179688 726.273438 270.476562 C 727.328125 275.769531 728.25 281.089844 729.042969 286.429688 C 729.835938 291.769531 730.496094 297.128906 731.027344 302.5 C 731.554688 307.875 731.953125 313.257812 732.21875 318.652344 C 732.484375 324.042969 732.613281 329.441406 732.613281 334.839844 C 732.613281 340.238281 732.484375 345.636719 732.21875 351.027344 C 731.953125 356.421875 731.554688 361.804688 731.027344 367.179688 C 730.496094 372.550781 729.835938 377.910156 729.042969 383.25 C 728.25 388.589844 727.328125 393.910156 726.273438 399.207031 C 725.21875 404.5 724.035156 409.769531 722.722656 415.003906 C 721.410156 420.242188 719.96875 425.445312 718.402344 430.613281 C 716.832031 435.78125 715.140625 440.90625 713.320312 445.988281 C 711.5 451.074219 709.554688 456.109375 707.488281 461.097656 C 705.421875 466.085938 703.234375 471.019531 700.921875 475.902344 C 698.613281 480.78125 696.183594 485.605469 693.640625 490.367188 C 691.09375 495.128906 688.429688 499.824219 685.652344 504.457031 C 682.875 509.085938 679.988281 513.648438 676.984375 518.136719 C 673.984375 522.625 670.875 527.039062 667.65625 531.375 C 664.4375 535.714844 661.117188 539.96875 657.6875 544.140625 C 654.261719 548.316406 650.734375 552.402344 647.105469 556.40625 C 643.480469 560.40625 639.753906 564.316406 635.933594 568.132812 C 632.117188 571.949219 628.203125 575.671875 624.203125 579.296875 C 620.199219 582.925781 616.109375 586.449219 611.933594 589.875 C 607.757812 593.300781 603.5 596.621094 599.160156 599.839844 C 594.820312 603.054688 590.40625 606.164062 585.914062 609.164062 C 581.421875 612.164062 576.859375 615.050781 572.226562 617.828125 C 567.59375 620.601562 562.894531 623.261719 558.128906 625.808594 C 553.367188 628.355469 548.542969 630.78125 543.660156 633.089844 C 538.777344 635.398438 533.839844 637.585938 528.847656 639.652344 C 523.855469 641.71875 518.816406 643.660156 513.730469 645.480469 C 508.644531 647.296875 503.519531 648.992188 498.347656 650.558594 C 493.179688 652.125 487.972656 653.566406 482.734375 654.878906 C 477.492188 656.191406 472.222656 657.371094 466.925781 658.425781 C 461.628906 659.480469 456.308594 660.402344 450.964844 661.195312 C 445.621094 661.988281 440.257812 662.648438 434.882812 663.175781 C 429.507812 663.707031 424.121094 664.101562 418.726562 664.367188 C 413.332031 664.632812 407.933594 664.765625 402.53125 664.765625 C 397.128906 664.765625 391.730469 664.632812 386.332031 664.367188 C 380.9375 664.101562 375.550781 663.707031 370.175781 663.175781 C 364.800781 662.648438 359.441406 661.988281 354.097656 661.195312 C 348.753906 660.402344 343.429688 659.480469 338.132812 658.425781 C 332.835938 657.371094 327.566406 656.191406 322.324219 654.878906 C 317.085938 653.566406 311.878906 652.125 306.710938 650.558594 C 301.542969 648.992188 296.414062 647.296875 291.328125 645.480469 C 286.242188 643.660156 281.203125 641.71875 276.210938 639.652344 C 271.21875 637.585938 266.285156 635.398438 261.398438 633.089844 C 256.515625 630.78125 251.691406 628.355469 246.929688 625.808594 C 242.164062 623.261719 237.464844 620.601562 232.832031 617.828125 C 228.199219 615.050781 223.636719 612.164062 219.144531 609.164062 C 214.652344 606.164062 210.238281 603.054688 205.898438 599.839844 C 201.558594 596.621094 197.300781 593.300781 193.125 589.875 C 188.949219 586.449219 184.859375 582.925781 180.859375 579.296875 C 176.855469 575.671875 172.945312 571.949219 169.125 568.132812 C 165.304688 564.316406 161.582031 560.40625 157.953125 556.40625 C 154.324219 552.402344 150.796875 548.316406 147.371094 544.140625 C 143.941406 539.96875 140.621094 535.714844 137.402344 531.375 C 134.183594 527.039062 131.074219 522.625 128.074219 518.136719 C 125.074219 513.648438 122.183594 509.085938 119.40625 504.457031 C 116.628906 499.824219 113.96875 495.128906 111.421875 490.367188 C 108.875 485.605469 106.445312 480.78125 104.136719 475.902344 C 101.828125 471.019531 99.636719 466.085938 97.570312 461.097656 C 95.503906 456.109375 93.558594 451.074219 91.738281 445.988281 C 89.917969 440.90625 88.226562 435.78125 86.65625 430.613281 C 85.089844 425.445312 83.648438 420.242188 82.335938 415.003906 C 81.023438 409.769531 79.839844 404.5 78.785156 399.207031 C 77.734375 393.910156 76.808594 388.589844 76.015625 383.25 C 75.222656 377.910156 74.5625 372.550781 74.035156 367.179688 C 73.503906 361.804688 73.105469 356.421875 72.84375 351.027344 C 72.578125 345.636719 72.445312 340.238281 72.445312 334.839844 Z M 72.445312 334.839844 "/><path style=" stroke:none;fill-rule:nonzero;fill:#3a3b45;fill-opacity:1;" d="M 498.703125 254.378906 C 509.605469 258.128906 513.863281 280.433594 524.851562 274.644531 C 526.085938 273.992188 527.28125 273.277344 528.445312 272.507812 C 529.605469 271.734375 530.726562 270.910156 531.808594 270.027344 C 532.890625 269.144531 533.925781 268.214844 534.914062 267.230469 C 535.902344 266.246094 536.839844 265.21875 537.730469 264.140625 C 538.617188 263.066406 539.449219 261.949219 540.230469 260.792969 C 541.007812 259.636719 541.726562 258.445312 542.386719 257.214844 C 543.046875 255.988281 543.648438 254.730469 544.183594 253.445312 C 544.722656 252.15625 545.195312 250.847656 545.605469 249.511719 C 546.011719 248.179688 546.355469 246.832031 546.632812 245.464844 C 546.90625 244.097656 547.113281 242.71875 547.253906 241.332031 C 547.394531 239.945312 547.46875 238.554688 547.472656 237.160156 C 547.476562 235.765625 547.410156 234.375 547.277344 232.988281 C 547.144531 231.597656 546.945312 230.21875 546.675781 228.851562 C 546.40625 227.484375 546.074219 226.132812 545.671875 224.796875 C 545.269531 223.460938 544.804688 222.148438 544.273438 220.859375 C 543.742188 219.570312 543.152344 218.308594 542.496094 217.078125 C 541.84375 215.847656 541.128906 214.648438 540.355469 213.488281 C 539.585938 212.328125 538.757812 211.207031 537.875 210.125 C 536.992188 209.046875 536.0625 208.011719 535.078125 207.023438 C 534.09375 206.035156 533.0625 205.09375 531.988281 204.207031 C 530.910156 203.320312 529.792969 202.488281 528.636719 201.710938 C 527.480469 200.933594 526.285156 200.214844 525.058594 199.554688 C 523.828125 198.894531 522.570312 198.292969 521.28125 197.757812 C 519.996094 197.21875 518.683594 196.746094 517.351562 196.339844 C 516.015625 195.929688 514.667969 195.589844 513.300781 195.3125 C 511.929688 195.039062 510.554688 194.828125 509.164062 194.6875 C 507.777344 194.550781 506.386719 194.476562 504.992188 194.472656 C 503.597656 194.46875 502.203125 194.535156 500.816406 194.667969 C 499.425781 194.800781 498.046875 195 496.679688 195.269531 C 495.308594 195.539062 493.957031 195.875 492.621094 196.273438 C 491.285156 196.675781 489.972656 197.140625 488.683594 197.671875 C 487.390625 198.203125 486.132812 198.792969 484.898438 199.449219 C 483.667969 200.101562 482.46875 200.816406 481.308594 201.585938 C 480.148438 202.359375 479.023438 203.1875 477.945312 204.066406 C 476.863281 204.949219 475.828125 205.882812 474.839844 206.867188 C 473.851562 207.847656 472.914062 208.878906 472.023438 209.953125 C 471.136719 211.03125 470.304688 212.144531 469.527344 213.304688 C 468.75 214.460938 468.03125 215.652344 467.367188 216.882812 C 466.707031 218.109375 466.109375 219.367188 465.570312 220.65625 C 465.035156 221.941406 464.5625 223.25 464.152344 224.585938 C 463.746094 225.917969 463.402344 227.269531 463.128906 228.636719 C 462.851562 230 462.644531 231.378906 462.503906 232.765625 C 462.363281 234.152344 462.292969 235.542969 462.289062 236.9375 C 462.285156 238.332031 462.351562 239.722656 462.484375 241.113281 C 462.617188 242.5 462.816406 243.878906 463.085938 245.246094 C 463.355469 246.613281 463.691406 247.964844 464.09375 249.300781 C 464.492188 250.636719 464.960938 251.949219 465.492188 253.238281 C 466.023438 254.527344 466.613281 255.789062 467.269531 257.019531 C 472.464844 266.8125 488.992188 250.890625 498.785156 254.296875 Z M 298.09375 254.378906 C 287.191406 258.128906 282.847656 280.433594 271.945312 274.644531 C 270.710938 273.992188 269.515625 273.277344 268.351562 272.507812 C 267.191406 271.734375 266.070312 270.910156 264.988281 270.027344 C 263.90625 269.144531 262.871094 268.214844 261.882812 267.230469 C 260.894531 266.246094 259.957031 265.21875 259.066406 264.140625 C 258.179688 263.066406 257.347656 261.949219 256.566406 260.792969 C 255.789062 259.636719 255.070312 258.445312 254.410156 257.214844 C 253.746094 255.988281 253.148438 254.730469 252.613281 253.445312 C 252.074219 252.15625 251.601562 250.847656 251.191406 249.511719 C 250.785156 248.179688 250.441406 246.832031 250.164062 245.464844 C 249.890625 244.097656 249.679688 242.71875 249.542969 241.332031 C 249.402344 239.945312 249.328125 238.554688 249.324219 237.160156 C 249.320312 235.765625 249.386719 234.375 249.519531 232.988281 C 249.652344 231.597656 249.851562 230.21875 250.121094 228.851562 C 250.390625 227.484375 250.722656 226.132812 251.125 224.796875 C 251.527344 223.460938 251.992188 222.148438 252.523438 220.859375 C 253.054688 219.570312 253.644531 218.308594 254.300781 217.078125 C 254.953125 215.847656 255.667969 214.648438 256.4375 213.488281 C 257.210938 212.328125 258.039062 211.207031 258.921875 210.125 C 259.800781 209.046875 260.734375 208.011719 261.71875 207.023438 C 262.703125 206.035156 263.734375 205.097656 264.808594 204.207031 C 265.886719 203.320312 267 202.488281 268.160156 201.710938 C 269.316406 200.933594 270.511719 200.214844 271.738281 199.554688 C 272.96875 198.894531 274.226562 198.292969 275.511719 197.757812 C 276.800781 197.21875 278.113281 196.746094 279.445312 196.339844 C 280.78125 195.929688 282.128906 195.589844 283.496094 195.3125 C 284.863281 195.039062 286.242188 194.828125 287.628906 194.6875 C 289.019531 194.550781 290.410156 194.476562 291.804688 194.472656 C 293.199219 194.46875 294.59375 194.535156 295.980469 194.667969 C 297.371094 194.800781 298.75 195 300.117188 195.269531 C 301.484375 195.539062 302.839844 195.875 304.175781 196.273438 C 305.511719 196.675781 306.824219 197.140625 308.113281 197.671875 C 309.402344 198.203125 310.664062 198.792969 311.898438 199.449219 C 313.128906 200.101562 314.324219 200.816406 315.488281 201.585938 C 316.648438 202.359375 317.769531 203.1875 318.851562 204.066406 C 319.933594 204.949219 320.96875 205.882812 321.957031 206.867188 C 322.945312 207.847656 323.882812 208.878906 324.769531 209.953125 C 325.660156 211.03125 326.492188 212.144531 327.269531 213.304688 C 328.046875 214.460938 328.765625 215.652344 329.429688 216.882812 C 330.089844 218.109375 330.6875 219.367188 331.222656 220.65625 C 331.761719 221.941406 332.234375 223.25 332.644531 224.585938 C 333.050781 225.917969 333.394531 227.269531 333.667969 228.636719 C 333.945312 230 334.152344 231.378906 334.292969 232.765625 C 334.433594 234.152344 334.503906 235.542969 334.507812 236.9375 C 334.511719 238.332031 334.445312 239.722656 334.3125 241.113281 C 334.179688 242.5 333.980469 243.878906 333.710938 245.246094 C 333.441406 246.613281 333.105469 247.964844 332.703125 249.300781 C 332.300781 250.636719 331.835938 251.949219 331.304688 253.238281 C 330.773438 254.527344 330.183594 255.789062 329.527344 257.019531 C 324.332031 266.8125 307.71875 250.890625 298.007812 254.296875 Z M 298.09375 254.378906 "/><path style=" stroke:none;fill-rule:nonzero;fill:#ff323d;fill-opacity:1;" d="M 400.398438 458.636719 C 484.136719 458.636719 511.136719 384.050781 511.136719 345.738281 C 511.136719 325.816406 497.765625 332.117188 476.296875 342.671875 C 456.449219 352.464844 429.789062 366.003906 400.484375 366.003906 C 339.238281 366.003906 289.746094 307.425781 289.746094 345.738281 C 289.746094 384.050781 316.664062 458.636719 400.484375 458.636719 Z M 400.398438 458.636719 "/><path style=" stroke:none;fill-rule:evenodd;fill:#3a3b45;fill-opacity:1;" d="M 336.257812 439.140625 C 337.378906 436.863281 338.613281 434.648438 339.960938 432.5 C 341.308594 430.351562 342.761719 428.277344 344.324219 426.273438 C 345.886719 424.273438 347.546875 422.359375 349.304688 420.53125 C 351.0625 418.699219 352.910156 416.964844 354.847656 415.324219 C 356.785156 413.6875 358.800781 412.148438 360.894531 410.714844 C 362.988281 409.285156 365.152344 407.960938 367.382812 406.75 C 369.613281 405.539062 371.902344 404.445312 374.242188 403.46875 C 376.585938 402.496094 378.972656 401.640625 381.402344 400.910156 C 384.8125 399.886719 388.304688 405.761719 391.96875 411.808594 C 395.375 417.597656 398.953125 423.472656 402.53125 423.472656 C 406.363281 423.472656 410.195312 417.683594 413.859375 411.980469 C 417.691406 406.019531 421.441406 400.230469 425.101562 401.335938 C 429.636719 402.773438 433.984375 404.632812 438.15625 406.917969 C 442.324219 409.203125 446.234375 411.867188 449.886719 414.910156 C 453.539062 417.953125 456.859375 421.320312 459.855469 425.007812 C 462.851562 428.699219 465.464844 432.644531 467.695312 436.839844 C 499.46875 411.808594 511.136719 370.941406 511.136719 345.738281 C 511.136719 325.816406 497.765625 332.117188 476.296875 342.671875 L 475.105469 343.269531 C 455.429688 353.058594 429.191406 366.003906 400.398438 366.003906 C 371.609375 366.003906 345.457031 353.058594 325.695312 343.269531 C 303.546875 332.285156 289.660156 325.390625 289.660156 345.738281 C 289.660156 371.707031 302.097656 414.363281 336.257812 439.140625 Z M 336.257812 439.140625 "/><path style=" stroke:none;fill-rule:nonzero;fill:#ff9d0b;fill-opacity:1;" d="M 602.710938 294.398438 C 603.617188 294.398438 604.523438 294.351562 605.425781 294.265625 C 606.328125 294.175781 607.222656 294.042969 608.113281 293.867188 C 609 293.6875 609.878906 293.46875 610.746094 293.207031 C 611.613281 292.941406 612.46875 292.636719 613.304688 292.292969 C 614.140625 291.945312 614.960938 291.558594 615.761719 291.128906 C 616.558594 290.703125 617.335938 290.238281 618.089844 289.734375 C 618.84375 289.230469 619.574219 288.691406 620.273438 288.117188 C 620.972656 287.542969 621.644531 286.933594 622.285156 286.292969 C 622.925781 285.652344 623.535156 284.980469 624.109375 284.28125 C 624.6875 283.582031 625.226562 282.851562 625.730469 282.101562 C 626.234375 281.347656 626.699219 280.570312 627.125 279.769531 C 627.554688 278.972656 627.941406 278.152344 628.289062 277.316406 C 628.632812 276.476562 628.941406 275.625 629.203125 274.757812 C 629.464844 273.890625 629.6875 273.011719 629.863281 272.125 C 630.039062 271.234375 630.171875 270.339844 630.261719 269.4375 C 630.351562 268.535156 630.394531 267.632812 630.394531 266.726562 C 630.394531 265.820312 630.351562 264.917969 630.261719 264.015625 C 630.171875 263.113281 630.039062 262.21875 629.863281 261.328125 C 629.6875 260.4375 629.464844 259.5625 629.203125 258.695312 C 628.941406 257.828125 628.632812 256.972656 628.289062 256.136719 C 627.941406 255.300781 627.554688 254.480469 627.125 253.683594 C 626.699219 252.882812 626.234375 252.105469 625.730469 251.351562 C 625.226562 250.601562 624.6875 249.871094 624.109375 249.171875 C 623.535156 248.472656 622.925781 247.800781 622.285156 247.160156 C 621.644531 246.519531 620.972656 245.910156 620.273438 245.335938 C 619.574219 244.761719 618.84375 244.222656 618.089844 243.71875 C 617.335938 243.214844 616.558594 242.75 615.761719 242.324219 C 614.960938 241.894531 614.140625 241.507812 613.304688 241.160156 C 612.46875 240.816406 611.613281 240.511719 610.746094 240.246094 C 609.878906 239.984375 609 239.765625 608.113281 239.585938 C 607.222656 239.410156 606.328125 239.277344 605.425781 239.1875 C 604.523438 239.101562 603.617188 239.054688 602.710938 239.054688 C 601.804688 239.054688 600.898438 239.101562 599.996094 239.1875 C 599.09375 239.277344 598.199219 239.410156 597.308594 239.585938 C 596.421875 239.765625 595.542969 239.984375 594.675781 240.246094 C 593.804688 240.511719 592.953125 240.816406 592.117188 241.160156 C 591.277344 241.507812 590.460938 241.894531 589.660156 242.324219 C 588.859375 242.75 588.082031 243.214844 587.328125 243.71875 C 586.574219 244.222656 585.847656 244.761719 585.148438 245.335938 C 584.445312 245.910156 583.777344 246.519531 583.132812 247.160156 C 582.492188 247.800781 581.886719 248.472656 581.308594 249.171875 C 580.734375 249.871094 580.195312 250.601562 579.691406 251.351562 C 579.1875 252.105469 578.722656 252.882812 578.292969 253.683594 C 577.867188 254.480469 577.480469 255.300781 577.132812 256.136719 C 576.785156 256.972656 576.480469 257.828125 576.21875 258.695312 C 575.953125 259.5625 575.734375 260.4375 575.558594 261.328125 C 575.382812 262.21875 575.246094 263.113281 575.160156 264.015625 C 575.070312 264.917969 575.027344 265.820312 575.027344 266.726562 C 575.027344 267.632812 575.070312 268.535156 575.160156 269.4375 C 575.246094 270.339844 575.382812 271.234375 575.558594 272.125 C 575.734375 273.011719 575.953125 273.890625 576.21875 274.757812 C 576.480469 275.625 576.785156 276.476562 577.132812 277.316406 C 577.480469 278.152344 577.867188 278.972656 578.292969 279.769531 C 578.722656 280.570312 579.1875 281.347656 579.691406 282.101562 C 580.195312 282.851562 580.734375 283.582031 581.308594 284.28125 C 581.886719 284.980469 582.492188 285.652344 583.132812 286.292969 C 583.777344 286.933594 584.445312 287.542969 585.148438 288.117188 C 585.847656 288.691406 586.574219 289.230469 587.328125 289.734375 C 588.082031 290.238281 588.859375 290.703125 589.660156 291.128906 C 590.460938 291.558594 591.277344 291.945312 592.117188 292.292969 C 592.953125 292.636719 593.804688 292.941406 594.675781 293.207031 C 595.542969 293.46875 596.421875 293.6875 597.308594 293.867188 C 598.199219 294.042969 599.09375 294.175781 599.996094 294.265625 C 600.898438 294.351562 601.804688 294.398438 602.710938 294.398438 Z M 206.609375 294.398438 C 207.515625 294.398438 208.417969 294.351562 209.320312 294.265625 C 210.222656 294.175781 211.121094 294.042969 212.007812 293.867188 C 212.898438 293.6875 213.777344 293.46875 214.644531 293.207031 C 215.511719 292.941406 216.363281 292.636719 217.203125 292.292969 C 218.039062 291.945312 218.859375 291.558594 219.660156 291.128906 C 220.457031 290.703125 221.234375 290.238281 221.988281 289.734375 C 222.742188 289.230469 223.46875 288.691406 224.171875 288.117188 C 224.871094 287.542969 225.542969 286.933594 226.183594 286.292969 C 226.824219 285.652344 227.433594 284.980469 228.007812 284.28125 C 228.582031 283.582031 229.125 282.851562 229.625 282.101562 C 230.128906 281.347656 230.597656 280.570312 231.023438 279.769531 C 231.449219 278.972656 231.839844 278.152344 232.183594 277.316406 C 232.53125 276.476562 232.835938 275.625 233.101562 274.757812 C 233.363281 273.890625 233.582031 273.011719 233.761719 272.125 C 233.9375 271.234375 234.070312 270.339844 234.160156 269.4375 C 234.25 268.535156 234.292969 267.632812 234.292969 266.726562 C 234.292969 265.820312 234.25 264.917969 234.160156 264.015625 C 234.070312 263.113281 233.9375 262.21875 233.761719 261.328125 C 233.582031 260.4375 233.363281 259.5625 233.101562 258.695312 C 232.835938 257.828125 232.53125 256.972656 232.183594 256.136719 C 231.839844 255.300781 231.449219 254.480469 231.023438 253.683594 C 230.597656 252.882812 230.128906 252.105469 229.625 251.351562 C 229.125 250.601562 228.582031 249.871094 228.007812 249.171875 C 227.433594 248.472656 226.824219 247.800781 226.183594 247.160156 C 225.542969 246.519531 224.871094 245.910156 224.171875 245.335938 C 223.46875 244.761719 222.742188 244.222656 221.988281 243.71875 C 221.234375 243.214844 220.457031 242.75 219.660156 242.324219 C 218.859375 241.894531 218.039062 241.507812 217.203125 241.160156 C 216.363281 240.816406 215.511719 240.511719 214.644531 240.246094 C 213.777344 239.984375 212.898438 239.765625 212.007812 239.585938 C 211.121094 239.410156 210.222656 239.277344 209.320312 239.1875 C 208.417969 239.101562 207.515625 239.054688 206.609375 239.054688 C 205.703125 239.054688 204.796875 239.101562 203.894531 239.1875 C 202.992188 239.277344 202.097656 239.410156 201.207031 239.585938 C 200.316406 239.765625 199.4375 239.984375 198.570312 240.246094 C 197.703125 240.511719 196.851562 240.816406 196.011719 241.160156 C 195.175781 241.507812 194.355469 241.894531 193.558594 242.324219 C 192.757812 242.75 191.980469 243.214844 191.226562 243.71875 C 190.472656 244.222656 189.746094 244.761719 189.046875 245.335938 C 188.34375 245.910156 187.671875 246.519531 187.03125 247.160156 C 186.390625 247.800781 185.78125 248.472656 185.207031 249.171875 C 184.632812 249.871094 184.09375 250.601562 183.589844 251.351562 C 183.085938 252.105469 182.621094 252.882812 182.191406 253.683594 C 181.765625 254.480469 181.378906 255.300781 181.03125 256.136719 C 180.683594 256.972656 180.378906 257.828125 180.117188 258.695312 C 179.851562 259.5625 179.632812 260.4375 179.457031 261.328125 C 179.277344 262.21875 179.144531 263.113281 179.058594 264.015625 C 178.96875 264.917969 178.921875 265.820312 178.921875 266.726562 C 178.921875 267.632812 178.96875 268.535156 179.058594 269.4375 C 179.144531 270.339844 179.277344 271.234375 179.457031 272.125 C 179.632812 273.011719 179.851562 273.890625 180.117188 274.757812 C 180.378906 275.625 180.683594 276.476562 181.03125 277.316406 C 181.378906 278.152344 181.765625 278.972656 182.191406 279.769531 C 182.621094 280.570312 183.085938 281.347656 183.589844 282.101562 C 184.09375 282.851562 184.632812 283.582031 185.207031 284.28125 C 185.78125 284.980469 186.390625 285.652344 187.03125 286.292969 C 187.671875 286.933594 188.34375 287.542969 189.046875 288.117188 C 189.746094 288.691406 190.472656 289.230469 191.226562 289.734375 C 191.980469 290.238281 192.757812 290.703125 193.558594 291.128906 C 194.355469 291.558594 195.175781 291.945312 196.011719 292.292969 C 196.851562 292.636719 197.703125 292.941406 198.570312 293.207031 C 199.4375 293.46875 200.316406 293.6875 201.207031 293.867188 C 202.097656 294.042969 202.992188 294.175781 203.894531 294.265625 C 204.796875 294.351562 205.703125 294.398438 206.609375 294.398438 Z M 149.621094 388.054688 C 135.820312 388.054688 123.554688 393.671875 114.949219 403.976562 C 113.128906 406.222656 111.511719 408.609375 110.101562 411.132812 C 108.6875 413.65625 107.496094 416.28125 106.53125 419.007812 C 105.566406 421.734375 104.839844 424.523438 104.351562 427.375 C 103.863281 430.226562 103.621094 433.097656 103.621094 435.988281 C 98.230469 434.367188 92.722656 433.515625 87.097656 433.433594 C 73.890625 433.433594 61.964844 438.457031 53.535156 447.566406 C 52.601562 448.535156 51.710938 449.539062 50.859375 450.582031 C 50.007812 451.621094 49.203125 452.695312 48.4375 453.800781 C 47.675781 454.910156 46.960938 456.042969 46.289062 457.210938 C 45.617188 458.375 44.996094 459.566406 44.425781 460.78125 C 43.851562 461.996094 43.328125 463.234375 42.859375 464.492188 C 42.386719 465.75 41.964844 467.027344 41.597656 468.320312 C 41.230469 469.609375 40.917969 470.917969 40.65625 472.234375 C 40.394531 473.554688 40.1875 474.878906 40.035156 476.214844 C 39.882812 477.550781 39.785156 478.890625 39.742188 480.234375 C 39.699219 481.574219 39.710938 482.917969 39.777344 484.261719 C 39.84375 485.601562 39.960938 486.941406 40.136719 488.273438 C 40.3125 489.605469 40.542969 490.929688 40.828125 492.242188 C 41.109375 493.554688 41.449219 494.855469 41.835938 496.140625 C 42.226562 497.425781 42.667969 498.695312 43.164062 499.945312 C 43.65625 501.195312 44.199219 502.421875 44.792969 503.628906 C 45.386719 504.835938 46.027344 506.015625 46.71875 507.167969 C 44.847656 508.695312 43.109375 510.363281 41.503906 512.171875 C 39.898438 513.976562 38.449219 515.902344 37.152344 517.941406 C 35.859375 519.980469 34.734375 522.109375 33.78125 524.332031 C 32.828125 526.550781 32.058594 528.832031 31.472656 531.175781 C 29.425781 538.839844 27.382812 555.015625 38.285156 571.535156 C 37.269531 573.097656 36.351562 574.71875 35.539062 576.398438 C 34.726562 578.078125 34.019531 579.804688 33.425781 581.570312 C 32.828125 583.339844 32.34375 585.136719 31.976562 586.964844 C 31.605469 588.796875 31.351562 590.640625 31.214844 592.5 C 31.078125 594.363281 31.058594 596.222656 31.15625 598.085938 C 31.253906 599.949219 31.464844 601.800781 31.796875 603.636719 C 32.128906 605.472656 32.570312 607.28125 33.128906 609.0625 C 33.6875 610.839844 34.355469 612.578125 35.132812 614.277344 C 43.824219 634.027344 65.542969 649.523438 107.710938 666.210938 C 133.863281 676.601562 157.882812 683.242188 158.054688 683.328125 C 188.519531 691.761719 219.554688 696.304688 251.160156 696.949219 C 301.078125 696.949219 336.769531 681.625 357.296875 651.484375 C 390.347656 603.039062 385.664062 558.679688 342.816406 515.9375 C 319.21875 492.269531 303.460938 457.445312 300.222656 449.78125 C 293.582031 427.132812 276.03125 401.933594 246.984375 401.933594 C 245.058594 401.960938 243.144531 402.105469 241.234375 402.363281 C 239.328125 402.625 237.441406 402.992188 235.578125 403.476562 C 233.714844 403.957031 231.886719 404.550781 230.09375 405.25 C 228.296875 405.949219 226.554688 406.753906 224.855469 407.660156 C 223.15625 408.570312 221.519531 409.574219 219.941406 410.675781 C 218.363281 411.777344 216.855469 412.96875 215.417969 414.25 C 213.984375 415.53125 212.628906 416.894531 211.351562 418.335938 C 210.078125 419.78125 208.894531 421.292969 207.800781 422.875 C 199.28125 412.148438 190.933594 403.71875 183.4375 398.867188 C 178.4375 395.484375 173.058594 392.871094 167.308594 391.03125 C 161.554688 389.191406 155.660156 388.199219 149.621094 388.054688 Z M 149.621094 422.109375 C 153.964844 422.109375 159.332031 423.984375 165.125 427.644531 C 183.351562 439.222656 218.363281 499.417969 231.226562 522.832031 C 235.484375 530.667969 242.894531 533.988281 249.457031 533.988281 C 262.660156 533.988281 272.878906 520.960938 250.734375 504.359375 C 217.339844 479.410156 229.011719 438.628906 244.941406 436.160156 C 245.621094 435.988281 246.386719 435.988281 246.984375 435.988281 C 261.464844 435.988281 267.855469 460.933594 267.855469 460.933594 C 267.855469 460.933594 286.59375 507.933594 318.792969 540.117188 C 350.910156 572.214844 352.613281 598.015625 329.1875 632.328125 C 313.171875 655.742188 282.589844 662.808594 251.160156 662.808594 C 218.703125 662.808594 185.3125 655.144531 166.65625 650.375 C 165.71875 650.121094 52.085938 618.023438 66.480469 590.777344 C 68.867188 586.179688 72.871094 584.304688 77.894531 584.304688 C 98.167969 584.304688 134.96875 614.445312 150.898438 614.445312 C 154.390625 614.445312 156.859375 613 157.96875 609.339844 C 164.699219 585.074219 55.238281 574.855469 64.4375 539.777344 C 66.140625 533.5625 70.484375 531.09375 76.703125 531.09375 C 103.449219 531.09375 163.589844 578.175781 176.199219 578.175781 C 177.132812 578.175781 177.902344 577.921875 178.242188 577.324219 C 184.546875 567.109375 181.054688 559.957031 136.503906 533.050781 C 92.121094 506.144531 60.859375 489.96875 78.578125 470.640625 C 80.621094 468.429688 83.519531 467.40625 87.097656 467.40625 C 114.097656 467.40625 177.902344 525.472656 177.902344 525.472656 C 177.902344 525.472656 195.109375 543.351562 205.585938 543.351562 C 207.972656 543.351562 210.015625 542.5 211.378906 540.117188 C 218.703125 527.6875 142.71875 470.132812 138.460938 446.375 C 135.566406 430.199219 140.503906 422.109375 149.621094 422.109375 Z M 149.621094 422.109375 "/><path style=" stroke:none;fill-rule:nonzero;fill:#ffd21e;fill-opacity:1;" d="M 329.1875 632.328125 C 352.613281 597.929688 350.910156 572.132812 318.792969 540.03125 C 286.59375 507.933594 267.855469 460.851562 267.855469 460.851562 C 267.855469 460.851562 260.871094 433.605469 244.941406 436.160156 C 229.011719 438.714844 217.339844 479.410156 250.734375 504.359375 C 284.039062 529.304688 244.089844 546.246094 231.226562 522.832031 C 218.449219 499.417969 183.351562 439.222656 165.125 427.644531 C 146.980469 416.152344 134.203125 422.535156 138.460938 446.375 C 142.71875 470.128906 218.789062 527.6875 211.378906 540.03125 C 203.96875 552.546875 177.902344 525.472656 177.902344 525.472656 C 177.902344 525.472656 96.378906 451.316406 78.578125 470.640625 C 60.859375 489.96875 92.121094 506.144531 136.503906 533.050781 C 181.054688 559.957031 184.546875 567.109375 178.242188 577.324219 C 171.851562 587.542969 73.636719 504.699219 64.4375 539.863281 C 55.238281 574.855469 164.699219 584.988281 157.96875 609.253906 C 151.152344 633.519531 80.792969 563.445312 66.480469 590.691406 C 52 618.023438 165.71875 650.121094 166.65625 650.375 C 203.285156 659.914062 296.5625 680.089844 329.1875 632.328125 Z M 329.1875 632.328125 "/><path style=" stroke:none;fill-rule:nonzero;fill:#ff9d0b;fill-opacity:1;" d="M 659.699219 388.054688 C 673.496094 388.054688 685.847656 393.671875 694.367188 403.976562 C 696.1875 406.222656 697.804688 408.609375 699.21875 411.132812 C 700.632812 413.65625 701.820312 416.28125 702.785156 419.007812 C 703.75 421.734375 704.476562 424.523438 704.964844 427.375 C 705.457031 430.226562 705.699219 433.097656 705.695312 435.988281 C 711.113281 434.359375 716.652344 433.507812 722.308594 433.433594 C 735.511719 433.433594 747.4375 438.457031 755.871094 447.566406 C 756.800781 448.535156 757.695312 449.539062 758.542969 450.582031 C 759.394531 451.621094 760.203125 452.695312 760.964844 453.800781 C 761.726562 454.910156 762.445312 456.042969 763.113281 457.210938 C 763.785156 458.375 764.40625 459.566406 764.980469 460.78125 C 765.550781 461.996094 766.074219 463.234375 766.546875 464.492188 C 767.019531 465.75 767.4375 467.027344 767.804688 468.320312 C 768.171875 469.609375 768.488281 470.917969 768.75 472.234375 C 769.007812 473.554688 769.214844 474.878906 769.367188 476.214844 C 769.519531 477.550781 769.621094 478.890625 769.664062 480.234375 C 769.707031 481.574219 769.695312 482.917969 769.628906 484.261719 C 769.5625 485.601562 769.441406 486.941406 769.265625 488.273438 C 769.089844 489.605469 768.859375 490.925781 768.578125 492.242188 C 768.292969 493.554688 767.957031 494.855469 767.566406 496.140625 C 767.175781 497.425781 766.734375 498.695312 766.242188 499.945312 C 765.746094 501.195312 765.203125 502.421875 764.609375 503.628906 C 764.015625 504.835938 763.375 506.015625 762.683594 507.167969 C 764.550781 508.699219 766.28125 510.367188 767.878906 512.175781 C 769.472656 513.984375 770.917969 515.910156 772.203125 517.949219 C 773.492188 519.988281 774.609375 522.117188 775.554688 524.335938 C 776.503906 526.554688 777.265625 528.835938 777.847656 531.175781 C 779.890625 538.839844 781.9375 555.015625 771.03125 571.535156 C 772.050781 573.097656 772.964844 574.71875 773.78125 576.398438 C 774.59375 578.078125 775.296875 579.804688 775.894531 581.570312 C 776.492188 583.339844 776.972656 585.136719 777.34375 586.964844 C 777.710938 588.796875 777.964844 590.640625 778.101562 592.5 C 778.242188 594.363281 778.261719 596.222656 778.164062 598.085938 C 778.066406 599.949219 777.851562 601.800781 777.519531 603.636719 C 777.191406 605.472656 776.746094 607.28125 776.1875 609.0625 C 775.628906 610.839844 774.960938 612.578125 774.183594 614.277344 C 765.496094 634.027344 743.773438 649.523438 701.695312 666.210938 C 675.457031 676.601562 651.433594 683.242188 651.265625 683.328125 C 620.800781 691.761719 589.765625 696.304688 558.160156 696.949219 C 508.242188 696.949219 472.550781 681.625 452.019531 651.484375 C 418.96875 603.039062 423.65625 558.679688 466.503906 515.9375 C 490.183594 492.269531 505.941406 457.445312 509.179688 449.78125 C 515.824219 427.132812 533.285156 401.933594 562.332031 401.933594 C 564.257812 401.960938 566.175781 402.105469 568.082031 402.363281 C 569.992188 402.625 571.875 402.992188 573.742188 403.476562 C 575.605469 403.957031 577.433594 404.550781 579.226562 405.25 C 581.019531 405.949219 582.765625 406.753906 584.464844 407.660156 C 586.160156 408.570312 587.800781 409.574219 589.378906 410.675781 C 590.957031 411.777344 592.464844 412.96875 593.898438 414.25 C 595.335938 415.53125 596.691406 416.894531 597.964844 418.335938 C 599.238281 419.78125 600.421875 421.292969 601.519531 422.875 C 610.035156 412.148438 618.382812 403.71875 625.964844 398.867188 C 630.953125 395.492188 636.320312 392.882812 642.054688 391.042969 C 647.792969 389.203125 653.675781 388.207031 659.699219 388.054688 Z M 659.699219 422.109375 C 655.355469 422.109375 650.074219 423.984375 644.195312 427.644531 C 626.050781 439.222656 590.957031 499.417969 578.09375 522.832031 C 577.660156 523.664062 577.175781 524.464844 576.632812 525.230469 C 576.09375 525.992188 575.503906 526.71875 574.863281 527.40625 C 574.226562 528.089844 573.542969 528.730469 572.816406 529.320312 C 572.089844 529.914062 571.328125 530.453125 570.53125 530.945312 C 569.730469 531.433594 568.902344 531.867188 568.042969 532.242188 C 567.183594 532.617188 566.304688 532.9375 565.402344 533.191406 C 564.503906 533.449219 563.589844 533.644531 562.660156 533.777344 C 561.734375 533.910156 560.800781 533.980469 559.863281 533.988281 C 546.746094 533.988281 536.4375 520.960938 558.671875 504.359375 C 591.976562 479.410156 580.308594 438.628906 564.378906 436.160156 C 563.699219 436.050781 563.019531 435.992188 562.332031 435.988281 C 547.851562 435.988281 541.464844 460.933594 541.464844 460.933594 C 541.464844 460.933594 522.722656 507.933594 490.609375 540.117188 C 458.410156 572.214844 456.707031 598.015625 480.21875 632.328125 C 496.144531 655.742188 526.8125 662.808594 558.160156 662.808594 C 590.699219 662.808594 624.007812 655.144531 642.746094 650.375 C 643.597656 650.121094 757.316406 618.023438 742.921875 590.777344 C 740.453125 586.179688 736.535156 584.304688 731.507812 584.304688 C 711.234375 584.304688 674.351562 614.445312 658.503906 614.445312 C 654.929688 614.445312 652.457031 613 651.433594 609.339844 C 644.621094 585.074219 754.082031 574.855469 744.882812 539.777344 C 743.261719 533.5625 738.917969 531.09375 732.613281 531.09375 C 705.867188 531.09375 645.726562 578.175781 633.121094 578.175781 C 632.269531 578.175781 631.503906 577.921875 631.160156 577.324219 C 624.859375 567.109375 628.265625 559.957031 672.730469 533.050781 C 717.28125 506.144531 748.542969 489.96875 730.65625 470.640625 C 728.695312 468.429688 725.800781 467.40625 722.308594 467.40625 C 695.21875 467.40625 631.417969 525.472656 631.417969 525.472656 C 631.417969 525.472656 614.210938 543.351562 603.816406 543.351562 C 603.230469 543.378906 602.65625 543.324219 602.085938 543.191406 C 601.515625 543.054688 600.972656 542.84375 600.460938 542.558594 C 599.949219 542.273438 599.488281 541.921875 599.074219 541.507812 C 598.660156 541.09375 598.308594 540.628906 598.023438 540.117188 C 590.613281 527.6875 666.597656 470.132812 670.855469 446.375 C 673.753906 430.199219 668.8125 422.109375 659.699219 422.109375 Z M 659.699219 422.109375 "/><path style=" stroke:none;fill-rule:nonzero;fill:#ffd21e;fill-opacity:1;" d="M 480.21875 632.328125 C 456.792969 597.929688 458.410156 572.132812 490.609375 540.03125 C 522.722656 507.933594 541.464844 460.851562 541.464844 460.851562 C 541.464844 460.851562 548.449219 433.605469 564.464844 436.160156 C 580.308594 438.714844 591.976562 479.410156 558.671875 504.359375 C 525.277344 529.304688 565.316406 546.246094 578.09375 522.832031 C 590.957031 499.417969 626.050781 439.222656 644.195312 427.644531 C 662.339844 416.152344 675.203125 422.535156 670.855469 446.375 C 666.597656 470.128906 590.613281 527.6875 598.023438 540.03125 C 605.351562 552.546875 631.417969 525.472656 631.417969 525.472656 C 631.417969 525.472656 713.023438 451.316406 730.742188 470.640625 C 748.460938 489.96875 717.28125 506.144531 672.816406 533.050781 C 628.265625 559.957031 624.859375 567.109375 631.078125 577.324219 C 637.464844 587.542969 735.679688 504.699219 744.882812 539.863281 C 754.082031 574.855469 644.707031 584.988281 651.433594 609.253906 C 658.25 633.519531 728.527344 563.445312 742.921875 590.691406 C 757.316406 618.023438 643.683594 650.121094 642.746094 650.375 C 606.03125 659.914062 512.757812 680.089844 480.214844 632.328125 Z M 480.21875 632.328125 "/></g></svg>